<svg xmlns="http://www.w3.org/2000/svg" xmlns:xlink="http://www.w3.org/1999/xlink" width="180.998" height="46.659" viewBox="0 0 180.998 46.659">
  <defs>
    <clipPath id="clip-path">
      <rect id="Rectangle_211" data-name="Rectangle 211" width="180.998" height="46.659" fill="#fff"/>
    </clipPath>
  </defs>
  <g id="Group_703" data-name="Group 703" transform="translate(0 0)">
    <g id="Group_702" data-name="Group 702" transform="translate(0 0)" clip-path="url(#clip-path)">
      <path id="Path_813" data-name="Path 813" d="M191.742,6.329l.763-1.408c.043-.081.09-.16.149-.262l.347-.6.146.617a.692.692,0,0,1,.027.137l.127,1.874q.128,1.884.257,3.768c.047.678.1,1.354.144,2.031.068.947.137,1.893.2,2.84.07,1.047.128,2.109.173,3.157a1.317,1.317,0,0,1-.711,1.28c-.173.093-.219.163-.193.275H197.9a.594.594,0,0,0-.071-.121,1.568,1.568,0,0,1-1.081-1.611c-.018-.439-.047-.876-.077-1.314l-.021-.331q-.206-3.187-.414-6.375L195.9,5.233c-.059-.854-.121-1.736-.157-2.607a1.368,1.368,0,0,1,1.125-1.55.325.325,0,0,0,.18-.092.187.187,0,0,0,.006-.109l-1.318,0c-.989,0-1.98,0-2.969-.008a.393.393,0,0,0-.418.245q-2.626,4.831-5.27,9.652l-.976,1.786c-.047.085-.1.166-.157.261l-.254.418-.26-.44c-.052-.086-.093-.155-.132-.224l-.887-1.59q-2.76-4.943-5.515-9.89a.333.333,0,0,0-.363-.218c-.953.012-1.907.01-2.862.008l-1.26,0L174.4,1l0,0a1.485,1.485,0,0,1,1.2,1.68c-.012.728-.052,1.433-.089,2.027q-.128,2.074-.264,4.147-.114,1.756-.226,3.512-.069,1.131-.137,2.263c-.078,1.286-.156,2.572-.242,3.858a1.388,1.388,0,0,1-1,1.375c-.144.042-.175.084-.181.1a.129.129,0,0,0,0,.076h4.188a.6.6,0,0,0-.056-.137,1.543,1.543,0,0,1-.919-1.7c.042-.807.093-1.612.144-2.418l.6-9.935c.016-.257.038-.514.06-.771l.057-.719.28.191a1.117,1.117,0,0,1,.348.407l1.4,2.519c1.743,3.127,3.545,6.36,5.3,9.552.142.259.287.268.549.282.055,0,.111.005.169.011.2.024.248-.041.381-.289q2.886-5.354,5.783-10.7" transform="translate(-37.357 -0.187)" fill="#fff"/>
      <path id="Path_814" data-name="Path 814" d="M132.576,1.083c.146-.046.189-.074.176-.184h-4.377c-.009.118,0,.128.105.163a1.447,1.447,0,0,1,1.071,1.55q0,5.9,0,11.8c0,.082,0,.162-.01.244l-.012.222-.359.167-.182-.24a2.555,2.555,0,0,0-.169-.215L125.176,10.7q-4.495-4.8-8.986-9.61a.582.582,0,0,0-.483-.22c-.862.012-1.725.01-2.585.008l-1.135,0V1a1.588,1.588,0,0,1,1.22,1.576,2.74,2.74,0,0,1,.009.3V18.362a1.362,1.362,0,0,1-.99,1.479c-.163.06-.2.106-.185.213l.415.007c1.309,0,2.618.005,3.926,0a.256.256,0,0,0,.038-.022.37.37,0,0,0-.06-.135,1.7,1.7,0,0,1-1.128-1.749q0-4.117,0-8.234V4.772c0-.086.007-.171.014-.256l.014-.2.39-.241.1.177c.019.034.035.069.053.1a.614.614,0,0,0,.085.144l3.885,4.17c3.417,3.665,6.95,7.454,10.406,11.2a1.448,1.448,0,0,0,1.384.47l0-16.684c0-.388,0-.775,0-1.162a1.39,1.39,0,0,1,1-1.413" transform="translate(-24.119 -0.187)" fill="#fff"/>
      <path id="Path_815" data-name="Path 815" d="M101.951,10.473h0c0-.1,0-.2,0-.3,0-.215.008-.43-.008-.643a10.554,10.554,0,0,0-.137-1.071,9.616,9.616,0,0,0-4.745-7A10.884,10.884,0,0,0,91.552,0a13.548,13.548,0,0,0-3.019.355,10.448,10.448,0,0,0-6.017,3.594,9.519,9.519,0,0,0-1.9,8.077,9.915,9.915,0,0,0,6,7.685,12.073,12.073,0,0,0,7.032.641,9.723,9.723,0,0,0,8.309-9.878m-10.69,8.292a7.328,7.328,0,0,1-5.114-1.933,8.728,8.728,0,0,1-2.635-4.544,18.174,18.174,0,0,1-.311-1.858c-.037-.277-.074-.554-.116-.829l0-.019V9.564A7.856,7.856,0,0,1,85.05,4.187,7.508,7.508,0,0,1,89.18,2a7.96,7.96,0,0,1,6.315,1.04,7.192,7.192,0,0,1,2.132,2.216,10.568,10.568,0,0,1,1.461,7.571,7.088,7.088,0,0,1-6.135,5.8,10.865,10.865,0,0,1-1.691.14" transform="translate(-17.317 0)" fill="#fff"/>
      <path id="Path_816" data-name="Path 816" d="M153.039,0c-.123.016-.279.033-.456.052a17.416,17.416,0,0,0-1.842.273A10.333,10.333,0,0,0,144.537,4a9.564,9.564,0,0,0-1.776,8.443,9.709,9.709,0,0,0,6.341,7.429,12.172,12.172,0,0,0,8.508-.04,9.372,9.372,0,0,0,5.525-5.019,10.459,10.459,0,0,0,.828-5.671,9.983,9.983,0,0,0-2.813-6.129C159.136.987,156.635.057,153.039,0m8.27,11.117c-.024,3.194-1.332,5.443-3.886,6.683a9.329,9.329,0,0,1-4.078,1.023,7.747,7.747,0,0,1-4.482-1.468,8.114,8.114,0,0,1-3.019-4.166,10.371,10.371,0,0,1-.361-5.924,6.48,6.48,0,0,1,3.663-4.549,8.82,8.82,0,0,1,6.358-.623A7.509,7.509,0,0,1,160.6,7.088a11.369,11.369,0,0,1,.711,4.027Z" transform="translate(-30.682 0)" fill="#fff"/>
      <path id="Path_817" data-name="Path 817" d="M14.822,14.453h0a.564.564,0,0,1,.564.36c.14.3.285.589.43.883.2.41.4.82.592,1.237a15.329,15.329,0,0,1,.663,1.685.844.844,0,0,1-.584,1.078c-.07.027-.141.049-.213.071v.09h5a.633.633,0,0,0-.061-.157,3.677,3.677,0,0,1-1.449-1.659c-.38-.755-.75-1.514-1.119-2.274l-1.455-3C15.259,8.773,13.256,4.644,11.3.572c-.231-.483-.443-.617-.891-.559-.231.032-.282.05-.35.194q-3.041,6.44-6.1,12.872L2.9,15.333c-.455.96-.91,1.92-1.378,2.875A2.624,2.624,0,0,1,.21,19.632c-.168.068-.224.12-.206.238.051,0,.1.008.158.008H.742c1.217,0,2.431,0,3.647-.008a.338.338,0,0,0,.184-.071c0-.026-.016-.064-.154-.116a1.012,1.012,0,0,1-.683-1.275,2.442,2.442,0,0,1,.162-.533c.435-.945.944-2.043,1.47-3.124a.63.63,0,0,1,.519-.287c2.978-.009,5.958-.006,8.936-.012M10.323,4.3l3.966,8.2H6.421Z" transform="translate(0 0)" fill="#fff"/>
      <path id="Path_818" data-name="Path 818" d="M47.083,1V.9H42.745v.115A1.423,1.423,0,0,1,43.855,2a3.367,3.367,0,0,1,.1.848l0,1.193c.005,2.513.012,5.112-.008,7.668a14.275,14.275,0,0,1-.211,2.368,4.873,4.873,0,0,1-2.949,3.949,7.581,7.581,0,0,1-5.344.261A4.873,4.873,0,0,1,31.863,14.4a12.679,12.679,0,0,1-.268-2.326c-.017-1.823-.016-3.645-.015-5.467,0-1.327,0-2.654,0-3.981a1.57,1.57,0,0,1,.843-1.466c.14-.079.193-.141.183-.258H27.9a.631.631,0,0,0,.059.155,1.706,1.706,0,0,1,.944,1.7l0,.96c-.007,2.625-.014,5.339.009,8.007a18.887,18.887,0,0,0,.213,2.748,6.565,6.565,0,0,0,4.157,5.358,11.135,11.135,0,0,0,7.844.213,6.388,6.388,0,0,0,4.226-4.092,9.532,9.532,0,0,0,.57-3.277q.007-3.558,0-7.115V2.823A1.632,1.632,0,0,1,47.083,1" transform="translate(-6.008 -0.194)" fill="#fff"/>
      <path id="Path_819" data-name="Path 819" d="M225.419,1.022V.906h-4.673a.356.356,0,0,0,0,.107,1.18,1.18,0,0,0,.189.134.875.875,0,0,1,.387,1.211,2.713,2.713,0,0,1-.276.478q-2.161,3.106-4.328,6.208c-.046.067-.1.13-.156.2l-.242.307-.265-.338c-.067-.084-.126-.158-.184-.235l-2.683-3.623Q212.16,3.981,211.14,2.6a1.071,1.071,0,0,1-.271-.862,1.047,1.047,0,0,1,.6-.653c.093-.05.1-.067.078-.195h-5.3a.541.541,0,0,0,.095.192c.173.165.359.315.547.466a5.4,5.4,0,0,1,.926.88c1.849,2.425,3.7,4.913,5.488,7.318l1.186,1.6a.847.847,0,0,1,.18.479c.006,2.217.009,4.436-.005,6.654a1.389,1.389,0,0,1-.858,1.354c-.125.053-.174.094-.162.216h4.736c.011-.145-.018-.174-.119-.213a1.544,1.544,0,0,1-.972-1.59V16.7c0-1.543,0-3.088.006-4.632a1.082,1.082,0,0,1,.18-.585q3.046-4.392,6.112-8.771a4.316,4.316,0,0,1,1.829-1.692" transform="translate(-44.421 -0.192)" fill="#fff"/>
      <path id="Path_820" data-name="Path 820" d="M55.845.891,54.56,4.076a.7.7,0,0,0,.31-.111,3.717,3.717,0,0,1,2.595-1.14c1.153-.043,2.326-.051,3.459-.058q.645,0,1.287-.01c.283,0,.456,0,.579.116s.121.282.122.574V18.188c0,.151-.008.3-.017.453a1.315,1.315,0,0,1-.791,1.183c-.137.061-.188.109-.179.212h4.737a.622.622,0,0,0-.055-.137,1.823,1.823,0,0,1-1.034-1.837q.013-5.507.007-11.015v-3.5c0-.028,0-.057-.005-.086a.621.621,0,0,1,.035-.326c.008-.016.179-.362.433-.362h0l.471,0c1.521.006,3.1.013,4.644.066A3.1,3.1,0,0,1,73.408,3.88a.414.414,0,0,0,.373.159L72.537.891Z" transform="translate(-11.751 -0.192)" fill="#fff"/>
      <path id="Path_821" data-name="Path 821" d="M47.287,53.217a3.727,3.727,0,0,1-1.53-1.809q-4.168-8.581-8.331-17.166c-.313-.647-.313-.647-.931-.658-.222,0-.277.042-.367.234q-1.762,3.734-3.536,7.463l-2.087,4.4q-1.4,2.955-2.8,5.907a3.021,3.021,0,0,1-1.57,1.674c.007,0,0,.035-.009.064a.281.281,0,0,0,.1.035q2.113.015,4.226,0A.3.3,0,0,0,30.6,53.3c0-.01-.019-.045-.146-.1a1.045,1.045,0,0,1-.655-1.324,3.821,3.821,0,0,1,.249-.73c.2-.425.4-.848.6-1.271.239-.505.479-1.01.712-1.517a.658.658,0,0,1,.679-.435c1.091.01,2.183.009,3.275.007h2.239c1.1,0,2.2,0,3.309,0h.006a.621.621,0,0,1,.628.388c.14.3.288.6.435.892.174.351.348.7.511,1.056l.027.059a15.219,15.219,0,0,1,.681,1.651,1.008,1.008,0,0,1-.016.8,1.05,1.05,0,0,1-.669.488.319.319,0,0,0-.124.056.407.407,0,0,0,.126.048q2.388.015,4.778,0a.321.321,0,0,0,.078-.022.338.338,0,0,0-.038-.123M32.456,46.038l3.778-7.927.356.012,3.828,7.915Z" transform="translate(-5.626 -7.233)" fill="#fff"/>
      <path id="Path_822" data-name="Path 822" d="M129.688,53.194a3.227,3.227,0,0,1-1.171-1.217c-.184-.319-.363-.662-.537-1.018l-1.371-2.822c-2.228-4.583-4.53-9.322-6.772-14-.238-.494-.458-.633-.928-.568-.2.027-.247.056-.3.172q-2.951,6.239-5.908,12.472l-.206.432c-.818,1.724-1.636,3.448-2.469,5.165a2.706,2.706,0,0,1-1.379,1.411c-.005.008-.027.051-.046.09a.278.278,0,0,0,.084.038c1.455.012,2.877.011,4.227,0a.342.342,0,0,0,.184-.071.759.759,0,0,0-.162-.079,1.031,1.031,0,0,1-.672-1.346,5.07,5.07,0,0,1,.3-.862c.2-.438.409-.872.617-1.306s.429-.9.636-1.349a.659.659,0,0,1,.676-.423h.009c1.087.008,2.173.006,3.263.006h2.224c1.086,0,2.176,0,3.264-.006h.009a.694.694,0,0,1,.708.436c.2.431.413.857.625,1.283.2.407.4.814.6,1.226a7.177,7.177,0,0,1,.416,1.088.963.963,0,0,1-.693,1.32.274.274,0,0,0-.041.049.25.25,0,0,0,.056.035c1.571.013,3.153.011,4.732,0a.313.313,0,0,0,.082-.036.546.546,0,0,0-.053-.126M114.907,46.03l3.773-7.916h.356l.053.111,3.776,7.805Z" transform="translate(-23.39 -7.228)" fill="#fff"/>
      <path id="Path_823" data-name="Path 823" d="M17.255,34.506c-.029-.132-.081-.22-.142-.241a.345.345,0,0,0-.279.11,3.142,3.142,0,0,0-.357.327.573.573,0,0,1-.74.133A12.233,12.233,0,0,0,10.7,33.71a11.179,11.179,0,0,0-1.649.122,8.936,8.936,0,0,0-6.178,3.7,10.631,10.631,0,0,0-1.749,8.672A9.309,9.309,0,0,0,4.685,52.03a10.04,10.04,0,0,0,8.366,1.62,9.268,9.268,0,0,0,5.794-3.91c.257-.356.485-.724.725-1.114.078-.126.155-.252.235-.377l-1.241-.831-.229.291c-.229.292-.448.57-.674.844-2.129,2.57-4.612,3.6-7.6,3.153a6.906,6.906,0,0,1-5.3-3.642,9.854,9.854,0,0,1-.893-7,6.652,6.652,0,0,1,3.209-4.556A7.631,7.631,0,0,1,11.9,35.6a7.983,7.983,0,0,1,5.872,3.367c.174.243.228.3.484.227l-.368-1.726q-.317-1.479-.637-2.957" transform="translate(-0.186 -7.26)" fill="#fff"/>
      <path id="Path_824" data-name="Path 824" d="M61.535,44.922a1.6,1.6,0,0,0,.322.021l.608.008c.6.009,1.233.018,1.844-.013a10.617,10.617,0,0,0,3.381-.639,4.274,4.274,0,0,0,2.865-3.134,6.259,6.259,0,0,0,.1-2.224,4.507,4.507,0,0,0-1.616-3.067A6.846,6.846,0,0,0,64.82,34.45c-.913-.042-1.849-.032-2.752-.024-.386,0-.772.007-1.157.007h-.177c-1.441,0-2.883,0-4.325.006a.115.115,0,0,0-.027.012.394.394,0,0,0,.072.1,1.409,1.409,0,0,0,.209.135.9.9,0,0,1,.409.359A3.158,3.158,0,0,1,57.4,36.27c.023,1.263.02,2.548.016,3.789l0,11.835a1.451,1.451,0,0,1-.961,1.546.139.139,0,0,1-.013.067.262.262,0,0,0,.063.035q2.2.016,4.407,0a.33.33,0,0,0,.068-.021.358.358,0,0,0-.048-.14A1.806,1.806,0,0,1,60,51.626c.007-1.781.005-3.563,0-5.344V42.512c0-1.874,0-3.749-.008-5.623a.581.581,0,0,1,.688-.679c.446.01.894.008,1.343.005.484,0,.969,0,1.452.008a6.388,6.388,0,0,1,2.442.428,3.118,3.118,0,0,1,2,2.712,3.18,3.18,0,0,1-1.43,3.234,5.16,5.16,0,0,1-2.421.73c-.833.06-1.674.071-2.4.077a.3.3,0,0,0-.151.022.269.269,0,0,0-.011.132c.012.236.009.472.006.709l0,.329a1.321,1.321,0,0,0,.024.326" transform="translate(-12.143 -7.413)" fill="#fff"/>
      <path id="Path_825" data-name="Path 825" d="M105.4,34.54a.369.369,0,0,0-.208-.1q-4.552-.008-9.1-.009-3.594,0-7.188-.006h0c-.161,0-.207.033-.27.193-.231.59-.469,1.177-.708,1.764l-.483,1.2a.651.651,0,0,0,.357-.182,4.135,4.135,0,0,1,1.389-.859,9.4,9.4,0,0,1,2.248-.313c.883-.034,1.779-.027,2.647-.019.347,0,.693.006,1.039.006.6,0,.69.09.69.683v3.713q0,5.568,0,11.138a1.652,1.652,0,0,1-.967,1.669c0,.005-.013.046-.025.1a.225.225,0,0,0,.061.022q2.255.013,4.517,0a.251.251,0,0,0,.06-.023.352.352,0,0,0-.044-.122,1.842,1.842,0,0,1-1.015-1.849q.012-4.464.005-8.93V38.727c0-.639,0-1.277,0-1.914a.622.622,0,0,1,.147-.457.662.662,0,0,1,.432-.14c.587.009,1.174.015,1.761.02,1.014.009,2.061.019,3.092.052a3.3,3.3,0,0,1,2.463,1.088.377.377,0,0,0,.3.148l-.175-.457c-.333-.844-.665-1.689-1.015-2.526" transform="translate(-18.831 -7.415)" fill="#fff"/>
      <path id="Path_826" data-name="Path 826" d="M150.049,53.552h1.8c.54,0,.54,0,.687-.54l.071-.251c.033-.116.066-.231.1-.348l.641-2.384a.312.312,0,0,0-.289.189,2.552,2.552,0,0,1-1.8,1.265,12.977,12.977,0,0,1-2.106.209c-1.193.014-2.387.013-3.58.012-.917,0-1.831,0-2.745,0a.744.744,0,0,1-.521-.158.711.711,0,0,1-.162-.521q.011-5.037.007-10.074V36.183a1.62,1.62,0,0,1,1.017-1.674s0-.018.017-.057a.134.134,0,0,0-.029-.009q-2.269-.013-4.549,0a.324.324,0,0,0-.046.021.25.25,0,0,0,.042.079,1.6,1.6,0,0,1,.958,1.621v1.769q0,7.072,0,14.144a1.371,1.371,0,0,1-.767,1.268l-.063.034a.591.591,0,0,0-.155.1.476.476,0,0,0,.25.066q5.612.009,11.222.006" transform="translate(-29.842 -7.417)" fill="#fff"/>
      <path id="Path_827" data-name="Path 827" d="M78.676,53.545c1.491.01,2.987.009,4.481,0a.336.336,0,0,0,.041-.022.35.35,0,0,0-.052-.115,1.469,1.469,0,0,1-.949-1.53q0-6.146,0-12.294V36.071a1.551,1.551,0,0,1,.959-1.556c-.005,0,0-.024.014-.05a.176.176,0,0,0-.042-.023c-1.5-.009-3.006-.008-4.512,0a.169.169,0,0,0-.024.013.6.6,0,0,0,.086.126c.075.079.161.152.246.225a1.79,1.79,0,0,1,.481.534,2.506,2.506,0,0,1,.211,1.119c.011,1.9.01,3.8.009,5.7V47.16l0,1.281c0,1.069.005,2.138-.009,3.207-.01.747-.14,1.481-1.007,1.8.012,0,0,.036,0,.072a.218.218,0,0,0,.066.026" transform="translate(-16.927 -7.417)" fill="#fff"/>
    </g>
  </g>
</svg>
